<?xml version="1.0" standalone="no"?>
<!DOCTYPE svg PUBLIC "-//W3C//DTD SVG 20010904//EN"
 "http://www.w3.org/TR/2001/REC-SVG-20010904/DTD/svg10.dtd">
<svg version="1.0" xmlns="http://www.w3.org/2000/svg"
 width="1568.000000pt" height="1563.000000pt" viewBox="0 0 1568.000000 1563.000000"
 preserveAspectRatio="xMidYMid meet">

<g transform="translate(0.000000,1563.000000) scale(0.100000,-0.100000)"
fill="#000000" stroke="none">
<path d="M7232 15541 c-11 -11 -40 -14 -124 -12 -92 2 -113 0 -129 -15 -16
-14 -31 -16 -95 -10 -63 6 -80 4 -102 -10 -19 -12 -43 -17 -83 -15 -42 2 -61
-2 -73 -15 -14 -14 -29 -16 -85 -10 -51 4 -72 2 -87 -9 -11 -8 -41 -15 -70
-15 -35 0 -56 -5 -65 -16 -10 -12 -23 -14 -54 -10 -28 5 -46 2 -60 -8 -11 -9
-37 -16 -57 -16 -20 0 -44 -7 -53 -16 -12 -12 -26 -15 -58 -10 -30 5 -48 2
-62 -8 -11 -9 -29 -16 -41 -16 -11 0 -29 -7 -40 -15 -10 -8 -36 -15 -56 -15
-20 0 -40 -4 -43 -10 -3 -5 -26 -10 -49 -10 -27 0 -48 -6 -56 -15 -7 -8 -25
-15 -40 -15 -15 0 -33 -7 -40 -15 -7 -8 -16 -12 -21 -9 -5 3 -23 -2 -41 -10
-17 -9 -48 -16 -69 -16 -21 0 -41 -4 -44 -10 -3 -5 -15 -10 -25 -10 -21 0 -97
-37 -106 -51 -3 -5 -18 -9 -34 -9 -16 0 -32 -4 -35 -10 -3 -5 -19 -10 -35 -10
-16 0 -31 -4 -34 -9 -3 -4 -21 -11 -40 -14 -18 -3 -52 -17 -75 -31 -22 -14
-48 -26 -57 -26 -21 0 -94 -31 -94 -40 0 -4 -13 -7 -29 -8 -16 0 -46 -11 -68
-25 -21 -13 -56 -30 -78 -37 -68 -22 -681 -329 -700 -350 -10 -11 -23 -20 -30
-20 -18 0 -71 -29 -86 -46 -7 -9 -36 -27 -64 -39 -28 -13 -59 -33 -69 -44 -11
-12 -26 -21 -35 -21 -9 0 -27 -12 -40 -25 -13 -14 -29 -25 -35 -25 -7 0 -21
-9 -31 -20 -10 -11 -41 -31 -69 -44 -28 -14 -64 -38 -80 -55 -17 -17 -35 -31
-42 -31 -7 0 -25 -10 -41 -22 -30 -25 -51 -39 -97 -66 -16 -9 -48 -34 -71 -54
-23 -21 -47 -38 -52 -38 -6 0 -32 -22 -59 -50 -27 -27 -56 -50 -64 -50 -9 0
-38 -22 -64 -50 -26 -27 -54 -50 -61 -50 -7 0 -43 -29 -79 -65 -36 -36 -72
-65 -79 -65 -7 0 -69 -56 -136 -125 -68 -69 -130 -125 -138 -125 -20 0 -263
-243 -263 -263 0 -8 -54 -68 -121 -133 -66 -66 -129 -135 -139 -154 -10 -19
-41 -56 -69 -82 -28 -26 -51 -54 -51 -62 0 -8 -22 -36 -50 -62 -27 -26 -50
-55 -50 -63 0 -9 -25 -40 -55 -70 -30 -30 -55 -59 -55 -65 0 -7 -16 -27 -35
-46 -19 -19 -35 -38 -35 -44 0 -5 -11 -24 -25 -42 -14 -18 -25 -37 -25 -42 0
-6 -18 -27 -40 -48 -22 -21 -40 -44 -40 -50 0 -7 -10 -25 -22 -41 -30 -37 -48
-70 -48 -86 0 -7 -11 -24 -25 -37 -14 -13 -25 -29 -25 -35 0 -7 -11 -24 -25
-39 -14 -15 -25 -33 -25 -40 0 -7 -11 -23 -24 -35 -13 -13 -34 -44 -45 -70
-11 -27 -27 -54 -36 -61 -9 -7 -27 -37 -41 -66 -13 -28 -31 -57 -38 -64 -8 -6
-33 -50 -56 -98 -23 -48 -46 -94 -51 -102 -5 -8 -12 -22 -15 -30 -20 -49 -88
-181 -95 -186 -5 -3 -9 -12 -9 -20 0 -8 -11 -32 -25 -54 -14 -22 -25 -44 -25
-50 0 -6 -11 -28 -25 -50 -14 -22 -25 -53 -25 -69 0 -16 -3 -31 -7 -33 -13 -5
-73 -127 -73 -146 0 -22 -27 -79 -41 -87 -5 -4 -9 -17 -9 -30 0 -13 -11 -44
-25 -69 -14 -25 -25 -54 -25 -64 0 -11 -6 -32 -14 -47 -8 -15 -12 -33 -10 -40
3 -6 -2 -18 -11 -25 -8 -7 -15 -22 -15 -35 0 -24 -26 -81 -41 -90 -5 -4 -9
-17 -9 -31 0 -14 -7 -36 -16 -49 -11 -16 -14 -36 -11 -54 4 -19 1 -33 -8 -41
-8 -7 -15 -24 -15 -39 0 -14 -7 -35 -15 -45 -8 -11 -15 -29 -15 -41 0 -12 -5
-26 -12 -33 -6 -6 -11 -28 -10 -49 1 -21 -5 -44 -14 -55 -11 -11 -15 -28 -12
-48 3 -18 -1 -35 -9 -41 -7 -6 -13 -24 -13 -39 0 -15 -7 -34 -16 -41 -12 -10
-15 -26 -12 -67 4 -39 1 -55 -10 -61 -9 -5 -14 -23 -14 -49 0 -24 -5 -46 -14
-53 -9 -7 -14 -31 -14 -63 -1 -29 -7 -59 -16 -71 -10 -14 -13 -32 -8 -63 5
-35 3 -46 -11 -56 -16 -11 -17 -24 -12 -89 5 -65 3 -78 -11 -86 -14 -8 -16
-22 -14 -74 2 -49 -1 -67 -14 -78 -13 -10 -15 -29 -13 -98 3 -69 0 -91 -14
-113 -16 -23 -17 -39 -11 -126 6 -90 5 -102 -14 -128 -19 -28 -19 -36 -10
-321 5 -178 5 -401 -1 -575 -9 -276 -8 -284 11 -312 19 -26 20 -38 14 -128 -6
-87 -5 -103 11 -126 14 -22 17 -44 14 -113 -2 -69 0 -88 13 -98 13 -11 16 -29
14 -78 -2 -52 0 -66 14 -74 14 -8 16 -21 11 -84 -5 -63 -3 -78 12 -94 13 -15
15 -29 11 -58 -5 -27 -2 -44 8 -58 9 -12 15 -41 16 -71 0 -32 5 -56 14 -63 9
-7 14 -29 14 -52 0 -21 6 -46 13 -55 7 -9 12 -35 10 -63 -2 -33 2 -51 13 -60
9 -8 16 -26 16 -41 0 -15 6 -33 13 -39 8 -6 12 -23 9 -41 -3 -20 1 -37 12 -48
9 -11 15 -34 14 -55 -1 -21 4 -43 10 -49 7 -7 12 -21 12 -33 0 -12 7 -30 15
-41 8 -10 15 -31 15 -45 0 -15 7 -32 15 -39 9 -8 12 -22 8 -41 -3 -18 0 -38
11 -54 9 -13 16 -35 16 -49 0 -14 4 -27 9 -31 15 -9 41 -66 41 -90 0 -13 7
-28 15 -35 9 -7 14 -19 11 -25 -2 -7 2 -25 10 -40 8 -15 14 -36 14 -47 0 -10
11 -39 25 -64 14 -25 25 -55 25 -68 0 -13 6 -29 13 -35 8 -6 19 -30 26 -53 7
-24 30 -78 52 -121 21 -43 39 -88 40 -100 0 -12 9 -35 20 -52 10 -16 21 -37
25 -45 3 -8 13 -28 22 -45 8 -16 20 -39 25 -50 6 -11 14 -27 18 -35 5 -8 16
-31 25 -50 8 -19 20 -42 25 -50 5 -8 12 -22 15 -30 9 -23 34 -73 43 -90 5 -8
28 -54 51 -102 23 -48 48 -92 56 -98 7 -7 25 -35 38 -64 13 -28 34 -60 45 -70
12 -11 21 -25 21 -33 0 -17 42 -84 64 -102 9 -7 16 -21 16 -30 0 -10 11 -28
25 -41 14 -13 25 -29 25 -35 0 -6 11 -22 25 -35 14 -13 25 -30 25 -37 0 -16
18 -49 48 -86 12 -16 22 -34 22 -41 0 -6 18 -29 40 -50 22 -21 40 -42 40 -48
0 -5 11 -24 25 -42 14 -18 25 -37 25 -42 0 -6 16 -25 35 -44 19 -19 35 -40 35
-46 0 -7 20 -32 44 -54 25 -23 51 -56 60 -74 8 -17 35 -51 60 -74 25 -24 46
-50 46 -58 0 -7 24 -37 54 -66 29 -29 61 -66 69 -83 8 -16 70 -84 136 -149 67
-66 121 -127 121 -136 0 -20 241 -260 262 -260 8 0 70 -56 138 -125 68 -69
130 -125 137 -125 7 0 43 -29 79 -65 36 -36 72 -65 79 -65 7 0 35 -23 61 -50
26 -28 55 -50 64 -50 8 0 37 -22 64 -50 27 -27 53 -50 59 -50 5 0 29 -17 52
-37 23 -21 55 -46 71 -55 46 -27 67 -41 97 -65 16 -13 34 -23 41 -23 7 0 27
-15 45 -34 19 -19 55 -44 80 -55 26 -11 55 -29 65 -40 11 -12 25 -21 32 -21 6
0 22 -11 35 -25 13 -13 31 -25 40 -25 9 0 24 -9 35 -21 10 -11 41 -31 69 -44
28 -12 57 -30 64 -39 15 -17 68 -46 86 -46 7 0 20 -9 30 -20 19 -21 650 -340
673 -340 7 0 20 -4 30 -9 9 -5 24 -12 32 -15 8 -4 30 -15 49 -27 19 -11 47
-21 63 -21 15 -1 28 -4 28 -8 0 -9 73 -40 94 -40 9 0 35 -12 57 -26 23 -14 57
-28 75 -31 19 -3 37 -10 40 -14 3 -5 18 -9 34 -9 16 0 32 -4 35 -10 3 -5 19
-10 35 -10 16 0 31 -4 34 -9 9 -14 85 -51 106 -51 10 0 22 -4 25 -10 3 -5 24
-10 46 -10 22 0 51 -7 64 -16 14 -9 31 -14 39 -11 8 3 20 -1 26 -9 7 -8 25
-14 40 -14 15 0 33 -7 40 -15 8 -9 29 -15 56 -15 23 0 46 -4 49 -10 3 -5 23
-10 43 -10 20 0 46 -7 56 -15 11 -8 29 -15 40 -15 12 0 30 -7 41 -16 14 -10
32 -13 62 -8 32 5 46 2 58 -10 9 -9 33 -16 53 -16 20 0 46 -7 57 -16 14 -10
32 -13 60 -8 31 4 44 2 54 -10 9 -11 30 -16 65 -16 29 0 59 -7 70 -15 15 -11
36 -13 87 -9 55 6 71 4 84 -10 12 -11 35 -16 78 -16 39 -1 69 -6 82 -16 16
-12 37 -13 100 -8 67 5 83 4 94 -10 11 -13 35 -16 131 -16 81 0 120 -4 122
-12 6 -16 1220 -16 1226 0 2 8 41 12 122 12 96 0 120 3 131 16 11 14 27 15 94
10 63 -5 84 -4 100 8 13 10 43 15 82 16 43 0 66 5 78 16 13 13 28 15 83 10 52
-5 72 -3 87 8 12 9 42 15 71 16 35 0 56 5 65 16 10 12 23 14 54 10 28 -5 46
-2 60 8 11 9 37 16 57 16 20 0 44 7 53 16 12 12 26 15 58 10 30 -5 48 -2 62 8
11 9 30 16 42 16 12 0 28 7 37 15 8 8 32 15 55 15 22 0 43 5 46 10 3 6 26 10
49 10 27 0 48 6 56 15 7 8 25 15 40 15 15 0 33 7 40 15 7 8 16 12 21 9 5 -3
23 2 41 10 17 9 48 16 69 16 21 0 41 5 44 10 3 6 15 10 25 10 21 0 97 37 106
51 3 5 18 9 34 9 16 0 32 5 35 10 3 6 19 10 34 10 15 0 32 5 38 11 7 7 25 13
41 14 15 1 47 14 70 29 23 14 49 26 58 26 21 0 94 31 94 40 0 4 13 7 29 8 16
0 48 12 70 26 22 14 47 26 55 26 8 0 18 5 21 10 3 6 14 10 23 10 25 0 656 317
677 340 10 11 23 20 30 20 18 0 71 29 86 46 7 9 36 27 64 39 28 13 59 33 69
44 11 12 26 21 35 21 9 0 27 12 40 25 13 14 29 25 35 25 7 0 21 9 31 20 10 11
41 31 69 44 28 14 64 38 80 55 17 17 35 31 42 31 7 0 25 10 41 22 30 25 51 39
97 66 16 9 48 34 71 55 23 20 47 37 52 37 6 0 32 23 59 50 27 28 56 50 64 50
9 0 38 23 64 50 26 28 54 50 62 50 7 0 42 29 77 65 35 36 71 65 79 65 7 0 69
56 137 125 68 69 130 125 138 125 20 0 263 241 263 261 0 9 54 69 121 135 66
65 129 135 139 154 10 19 41 56 69 82 28 26 51 54 51 62 0 8 23 36 50 62 28
26 50 55 50 63 0 9 25 40 55 70 30 30 55 59 55 65 0 7 16 27 35 46 19 19 35
40 35 47 0 8 11 26 25 41 14 15 25 32 25 39 0 6 18 28 40 49 22 21 40 44 40
50 0 7 10 25 23 41 29 37 47 70 47 86 0 7 11 24 25 37 14 13 25 29 25 36 0 6
11 22 25 35 13 13 25 31 25 40 0 8 11 26 24 38 13 13 34 44 45 70 11 27 27 54
36 61 9 7 27 37 41 66 13 28 31 57 38 64 8 6 33 50 56 98 23 48 46 94 51 102
5 8 14 26 19 39 13 29 78 161 90 181 4 8 16 31 24 50 9 19 21 42 26 50 5 8 11
22 14 30 4 8 15 29 25 45 11 17 20 40 20 52 1 12 19 57 40 100 22 43 45 97 52
121 7 23 18 47 26 53 7 6 13 22 13 35 0 13 11 43 25 68 14 25 25 54 25 64 0
11 6 32 14 47 8 15 12 33 10 40 -3 6 2 18 11 25 8 7 15 22 15 35 0 24 26 81
41 90 5 4 9 17 9 31 0 14 7 36 16 49 11 16 14 36 11 54 -4 19 -1 33 8 41 8 7
15 24 15 39 0 14 7 35 15 45 8 11 15 29 15 41 0 12 5 26 12 33 6 6 11 28 10
49 -1 21 5 44 14 55 12 12 15 27 10 51 -5 26 -3 36 9 41 9 3 15 18 15 34 0 16
7 36 16 43 12 10 15 26 12 67 -4 39 -1 55 10 61 9 5 14 23 14 49 0 24 5 46 14
53 9 7 14 31 14 63 1 30 7 59 16 71 10 14 13 31 8 58 -4 29 -2 43 11 58 15 16
17 31 12 94 -5 63 -3 76 11 84 14 8 16 22 14 74 -2 49 1 67 14 78 13 10 15 29
13 98 -3 69 0 91 14 113 16 23 17 39 11 126 -6 90 -5 102 14 128 19 28 20 36
10 316 -6 182 -6 394 0 575 10 281 9 289 -10 317 -19 26 -20 38 -14 128 6 87
5 103 -11 126 -14 22 -17 44 -14 113 2 69 0 88 -13 98 -13 11 -16 29 -14 78 2
52 0 66 -14 74 -14 8 -16 21 -11 86 5 65 4 78 -12 89 -14 10 -16 21 -11 56 5
31 2 49 -8 63 -9 12 -15 42 -16 71 0 32 -5 56 -14 63 -9 7 -14 29 -14 53 0 26
-5 44 -15 49 -11 6 -13 20 -10 54 4 31 1 52 -11 69 -9 14 -16 36 -16 49 0 14
-7 30 -15 37 -9 8 -13 21 -9 36 4 14 0 34 -10 48 -8 14 -15 41 -14 61 1 19 -4
41 -10 47 -7 7 -12 21 -12 33 0 12 -7 30 -15 41 -8 10 -15 31 -15 45 0 15 -7
32 -15 39 -9 8 -12 22 -8 41 3 18 0 38 -11 54 -9 13 -16 35 -16 49 0 14 -4 27
-9 31 -15 9 -41 66 -41 90 0 13 -7 28 -15 35 -8 7 -15 25 -15 41 0 15 -4 31
-10 34 -5 3 -10 17 -10 31 0 14 -11 45 -25 70 -14 25 -25 56 -25 69 0 13 -4
26 -9 30 -14 8 -41 65 -41 87 0 19 -60 141 -72 146 -5 2 -8 17 -8 33 0 16 -11
47 -25 69 -14 22 -25 46 -25 54 0 8 -4 17 -9 20 -8 5 -127 242 -215 427 -20
42 -43 82 -51 89 -8 7 -26 36 -39 64 -14 29 -32 59 -41 66 -9 7 -25 34 -36 61
-11 26 -32 57 -45 70 -13 12 -24 28 -24 35 0 7 -11 25 -25 40 -14 15 -25 32
-25 39 0 6 -11 22 -25 35 -14 13 -25 29 -25 36 0 15 -18 50 -47 91 -13 17 -23
35 -23 40 0 5 -18 26 -40 47 -22 21 -40 42 -40 48 0 5 -11 24 -25 42 -14 18
-25 36 -25 41 0 4 -18 27 -40 51 -22 24 -40 48 -40 53 0 6 -22 31 -50 57 -27
26 -50 54 -50 63 0 10 -22 39 -50 65 -27 26 -50 54 -50 61 0 7 -23 34 -51 61
-28 27 -59 65 -69 84 -10 19 -73 88 -139 153 -67 65 -121 126 -121 135 0 22
-241 262 -263 262 -8 0 -71 56 -138 125 -68 69 -129 125 -137 125 -8 0 -44 29
-79 65 -35 36 -70 65 -77 65 -8 0 -36 23 -62 50 -26 28 -55 50 -64 50 -8 0
-37 23 -64 50 -27 28 -53 50 -59 50 -5 0 -29 17 -52 38 -23 20 -55 45 -71 54
-46 27 -67 41 -97 66 -16 12 -34 22 -41 22 -7 0 -25 14 -42 31 -16 17 -52 41
-80 55 -28 13 -59 33 -69 44 -10 11 -23 20 -29 20 -6 0 -24 11 -40 25 -16 14
-34 25 -41 25 -7 0 -20 9 -31 21 -10 11 -41 31 -69 44 -28 12 -57 30 -64 39
-15 17 -68 46 -86 46 -7 0 -20 9 -30 20 -19 21 -632 328 -700 350 -22 7 -57
24 -78 37 -22 14 -52 25 -68 25 -16 1 -29 4 -29 8 0 9 -73 40 -94 40 -9 0 -35
12 -58 26 -23 15 -55 28 -70 29 -16 1 -34 7 -41 14 -6 6 -23 11 -38 11 -15 0
-31 5 -34 10 -3 6 -19 10 -35 10 -16 0 -31 4 -34 9 -9 14 -85 51 -106 51 -10
0 -22 5 -25 10 -3 6 -23 10 -44 10 -21 0 -52 7 -69 16 -18 8 -36 13 -41 10 -5
-3 -14 1 -21 9 -7 8 -25 15 -40 15 -15 0 -33 7 -40 15 -8 9 -29 15 -56 15 -23
0 -46 5 -49 10 -3 6 -24 10 -46 10 -23 0 -47 7 -55 15 -9 8 -25 15 -37 15 -12
0 -31 7 -42 16 -14 10 -32 13 -62 8 -32 -5 -46 -2 -58 10 -9 9 -33 16 -53 16
-20 0 -46 7 -57 16 -14 10 -32 13 -60 8 -31 -4 -44 -2 -54 10 -9 11 -30 16
-65 16 -29 0 -59 7 -70 15 -15 11 -36 13 -87 9 -55 -6 -71 -4 -84 10 -12 11
-35 16 -78 16 -39 1 -69 6 -82 16 -16 12 -37 13 -100 8 -68 -5 -83 -4 -94 10
-12 14 -33 17 -129 15 -83 -1 -117 2 -122 11 -13 20 -1208 21 -1228 1z m1226
-17 c13 -14 31 -15 122 -9 90 5 108 4 119 -9 11 -13 34 -16 106 -16 70 0 96
-4 105 -15 9 -11 32 -15 81 -15 39 0 69 -4 69 -10 0 -6 35 -10 84 -10 62 0 87
-4 96 -15 8 -10 31 -15 66 -15 29 0 56 -4 59 -10 3 -5 30 -10 59 -10 35 0 58
-5 66 -15 8 -9 30 -15 56 -15 24 0 44 -4 44 -10 0 -6 26 -10 59 -10 40 0 63
-5 71 -15 7 -8 25 -15 41 -15 15 0 31 -4 34 -10 3 -5 23 -10 44 -10 22 0 44
-6 51 -15 8 -9 29 -15 56 -15 23 0 46 -4 49 -10 3 -5 19 -10 34 -10 16 0 34
-7 41 -15 7 -8 25 -15 41 -15 15 0 31 -4 34 -10 3 -5 26 -10 49 -10 27 0 48
-6 56 -15 7 -8 22 -15 35 -15 24 0 81 -26 90 -41 4 -5 20 -9 36 -9 17 0 37 -7
45 -15 9 -8 29 -15 45 -15 16 0 29 -4 29 -10 0 -5 15 -10 34 -10 19 0 37 -4
41 -9 9 -15 66 -41 90 -41 13 0 28 -7 35 -15 7 -8 21 -15 31 -15 11 0 19 -4
19 -10 0 -5 15 -10 34 -10 19 0 37 -4 41 -9 7 -12 64 -41 80 -41 7 0 18 -7 25
-15 7 -8 22 -15 33 -15 25 0 97 -31 97 -42 0 -4 5 -8 12 -8 18 0 88 -33 88
-42 0 -4 5 -8 12 -8 18 0 88 -33 88 -42 0 -4 6 -8 14 -8 17 0 80 -32 84 -42 2
-5 9 -8 15 -8 20 0 235 -111 253 -131 9 -10 25 -19 34 -19 10 0 23 -7 30 -15
7 -8 18 -15 24 -15 7 0 23 -11 36 -25 13 -14 29 -25 35 -25 18 0 68 -27 92
-50 12 -11 28 -20 36 -20 7 0 24 -11 37 -25 13 -14 28 -25 34 -25 6 0 22 -10
36 -23 25 -23 86 -57 102 -57 5 0 26 -18 47 -40 21 -22 45 -40 53 -40 8 0 25
-11 38 -25 13 -14 30 -25 37 -25 8 0 26 -11 41 -25 15 -14 32 -25 37 -25 6 0
26 -16 45 -35 19 -19 40 -35 47 -35 7 0 31 -18 53 -40 23 -23 58 -51 78 -64
20 -13 55 -42 77 -65 21 -23 46 -41 55 -41 8 0 41 -27 73 -60 32 -33 63 -60
70 -60 6 0 70 -58 142 -130 73 -71 138 -130 146 -130 19 0 249 -231 249 -250
0 -8 56 -71 125 -140 69 -69 125 -130 125 -136 0 -7 29 -41 65 -76 36 -36 65
-71 65 -79 0 -8 23 -37 50 -64 28 -27 50 -56 50 -63 0 -8 23 -36 50 -62 27
-26 50 -54 50 -62 0 -8 18 -32 40 -53 22 -21 40 -46 40 -55 0 -8 11 -24 25
-34 14 -10 25 -26 25 -35 0 -10 16 -32 35 -51 19 -19 35 -39 35 -45 0 -5 10
-22 23 -36 24 -28 57 -85 57 -100 0 -6 11 -22 25 -37 14 -15 25 -32 25 -38 0
-6 11 -21 25 -34 14 -13 25 -31 25 -40 0 -9 11 -27 25 -40 14 -13 25 -29 25
-36 0 -6 7 -17 15 -24 8 -7 15 -19 15 -27 0 -7 9 -24 20 -36 23 -24 50 -74 50
-92 0 -7 10 -20 21 -31 12 -10 25 -28 30 -39 5 -11 13 -27 18 -35 5 -8 17 -31
25 -50 9 -19 21 -42 25 -50 5 -8 17 -31 25 -50 9 -19 20 -42 25 -50 5 -8 17
-33 27 -55 11 -22 22 -41 27 -43 4 -2 7 -12 7 -22 0 -9 7 -23 15 -30 8 -7 15
-21 15 -31 0 -11 5 -19 10 -19 6 0 10 -8 10 -19 0 -10 7 -24 15 -31 8 -7 15
-21 15 -31 0 -11 5 -19 10 -19 6 0 10 -8 10 -19 0 -10 7 -24 15 -31 8 -7 15
-23 15 -36 0 -14 4 -32 9 -42 5 -9 12 -24 15 -32 4 -8 15 -28 25 -45 11 -16
20 -42 20 -56 1 -15 8 -32 16 -39 8 -7 15 -21 15 -31 0 -10 5 -21 10 -24 6 -3
10 -19 10 -34 0 -16 7 -34 15 -41 8 -7 15 -21 15 -31 0 -11 5 -19 10 -19 6 0
10 -13 10 -29 0 -16 7 -36 15 -45 8 -8 15 -28 15 -45 0 -17 5 -31 10 -31 6 0
10 -11 10 -26 0 -14 14 -49 30 -79 17 -30 30 -63 30 -74 0 -11 5 -23 10 -26 6
-3 10 -26 10 -49 0 -27 6 -48 15 -56 8 -7 15 -25 15 -41 0 -15 5 -31 10 -34 6
-3 10 -19 10 -34 0 -16 7 -34 15 -41 9 -8 15 -30 15 -56 0 -24 5 -44 10 -44 6
0 10 -20 10 -44 0 -26 6 -48 15 -56 8 -7 15 -25 15 -41 0 -15 5 -31 10 -34 6
-3 10 -32 10 -65 0 -42 4 -59 15 -64 10 -4 15 -20 15 -50 0 -25 5 -48 10 -51
6 -3 10 -30 10 -59 0 -35 5 -58 15 -66 10 -8 15 -31 15 -66 0 -29 5 -56 10
-59 6 -3 10 -44 10 -90 0 -64 3 -84 15 -89 11 -4 15 -22 15 -73 1 -41 6 -75
14 -86 10 -13 12 -40 9 -100 -5 -68 -3 -85 11 -96 13 -11 16 -35 16 -131 0
-80 4 -120 11 -122 9 -3 12 -164 12 -608 0 -444 -3 -605 -12 -608 -7 -2 -11
-42 -11 -122 0 -96 -3 -120 -16 -131 -14 -11 -16 -28 -11 -96 3 -60 1 -87 -9
-100 -8 -11 -13 -45 -14 -86 0 -51 -4 -69 -15 -73 -12 -5 -15 -25 -15 -89 0
-46 -4 -87 -10 -90 -5 -3 -10 -30 -10 -59 0 -35 -5 -58 -15 -66 -10 -8 -15
-31 -15 -66 0 -29 -4 -56 -10 -59 -5 -3 -10 -26 -10 -49 0 -27 -6 -48 -15 -56
-10 -8 -15 -31 -15 -66 0 -29 -4 -56 -10 -59 -5 -3 -10 -19 -10 -34 0 -16 -7
-34 -15 -41 -9 -8 -15 -30 -15 -56 0 -24 -4 -44 -10 -44 -5 0 -10 -20 -10 -44
0 -26 -6 -48 -15 -56 -8 -7 -15 -25 -15 -41 0 -15 -4 -31 -10 -34 -5 -3 -10
-19 -10 -34 0 -16 -7 -34 -15 -41 -9 -8 -15 -29 -15 -56 0 -23 -5 -46 -10 -49
-6 -3 -10 -15 -10 -26 0 -11 -14 -44 -30 -74 -16 -30 -30 -65 -30 -79 0 -15
-4 -26 -10 -26 -5 0 -10 -14 -10 -31 0 -17 -7 -37 -15 -45 -8 -9 -15 -29 -15
-45 0 -16 -4 -29 -10 -29 -5 0 -10 -8 -10 -19 0 -10 -7 -24 -15 -31 -8 -7 -15
-25 -15 -41 0 -15 -4 -31 -10 -34 -5 -3 -10 -14 -10 -24 0 -10 -7 -24 -15 -31
-8 -7 -15 -24 -16 -39 0 -14 -9 -39 -20 -56 -10 -16 -21 -37 -25 -45 -3 -8
-10 -23 -15 -32 -5 -10 -9 -28 -9 -42 0 -13 -7 -29 -15 -36 -8 -7 -15 -21 -15
-31 0 -11 -4 -19 -10 -19 -5 0 -10 -8 -10 -19 0 -10 -7 -24 -15 -31 -8 -7 -15
-21 -15 -31 0 -11 -4 -19 -10 -19 -5 0 -10 -8 -10 -19 0 -10 -7 -24 -15 -31
-8 -7 -15 -19 -15 -26 0 -8 -11 -32 -25 -54 -14 -22 -25 -46 -25 -54 0 -8 -4
-18 -10 -21 -5 -3 -17 -23 -26 -43 -8 -20 -20 -44 -25 -52 -4 -8 -16 -31 -25
-50 -8 -19 -20 -42 -25 -50 -5 -8 -13 -24 -18 -35 -5 -11 -18 -29 -30 -39 -11
-11 -21 -24 -21 -31 0 -18 -27 -68 -50 -92 -11 -12 -20 -29 -20 -36 0 -8 -7
-20 -15 -27 -8 -7 -15 -19 -15 -27 0 -8 -11 -24 -25 -37 -14 -13 -25 -30 -25
-38 0 -8 -11 -25 -25 -38 -14 -13 -25 -30 -25 -37 0 -8 -11 -24 -25 -37 -14
-13 -25 -28 -25 -34 0 -16 -32 -73 -57 -101 -13 -14 -23 -31 -23 -36 0 -6 -16
-26 -35 -45 -19 -19 -35 -41 -35 -49 0 -9 -12 -27 -25 -40 -14 -13 -25 -28
-25 -35 0 -7 -18 -30 -40 -51 -22 -21 -40 -46 -40 -55 0 -9 -22 -37 -50 -62
-27 -26 -50 -53 -50 -60 0 -8 -22 -36 -50 -63 -27 -27 -50 -56 -50 -64 0 -8
-29 -43 -65 -79 -36 -35 -65 -69 -65 -76 0 -6 -56 -67 -125 -136 -69 -69 -125
-131 -125 -140 0 -19 -230 -250 -249 -250 -8 0 -73 -59 -146 -130 -72 -72
-136 -130 -142 -130 -6 0 -37 -27 -71 -60 -33 -33 -66 -60 -74 -60 -7 0 -38
-25 -68 -55 -30 -30 -60 -55 -66 -55 -7 0 -34 -22 -62 -50 -28 -27 -57 -50
-64 -50 -8 0 -29 -16 -48 -35 -19 -19 -39 -35 -45 -35 -5 0 -22 -11 -37 -25
-15 -14 -33 -25 -41 -25 -7 0 -24 -11 -37 -25 -13 -14 -29 -25 -36 -25 -7 0
-31 -18 -53 -40 -22 -22 -44 -40 -49 -40 -16 0 -77 -33 -102 -57 -14 -13 -30
-23 -36 -23 -6 0 -21 -11 -34 -25 -13 -14 -30 -25 -37 -25 -8 0 -24 -9 -36
-20 -24 -23 -74 -50 -92 -50 -6 0 -22 -11 -35 -25 -13 -14 -29 -25 -36 -25 -6
0 -17 -7 -24 -15 -7 -8 -20 -15 -30 -15 -9 0 -25 -9 -34 -19 -19 -20 -233
-131 -254 -131 -7 0 -12 -4 -12 -8 0 -9 -70 -42 -88 -42 -7 0 -12 -4 -12 -8 0
-9 -70 -42 -88 -42 -7 0 -12 -4 -12 -8 0 -9 -70 -42 -88 -42 -7 0 -12 -4 -12
-8 0 -11 -72 -42 -97 -42 -11 0 -26 -7 -33 -15 -7 -8 -18 -15 -25 -15 -16 0
-73 -29 -80 -41 -4 -5 -21 -9 -40 -9 -18 0 -35 -3 -37 -7 -5 -12 -68 -43 -87
-43 -21 0 -78 -27 -86 -41 -4 -5 -21 -9 -40 -9 -18 0 -35 -5 -37 -12 -2 -6
-20 -13 -38 -14 -19 -1 -36 -7 -38 -13 -2 -6 -19 -11 -37 -11 -19 0 -36 -4
-40 -9 -9 -15 -66 -41 -90 -41 -13 0 -28 -7 -35 -15 -8 -9 -29 -15 -56 -15
-23 0 -46 -5 -49 -10 -3 -6 -19 -10 -34 -10 -16 0 -34 -7 -41 -15 -7 -8 -25
-15 -41 -15 -15 0 -31 -5 -34 -10 -3 -6 -26 -10 -50 -10 -29 0 -45 -5 -49 -15
-4 -10 -20 -15 -50 -15 -25 0 -48 -4 -51 -10 -3 -5 -19 -10 -34 -10 -16 0 -34
-7 -41 -15 -8 -10 -31 -15 -71 -15 -33 0 -59 -4 -59 -10 0 -5 -20 -10 -44 -10
-26 0 -48 -6 -56 -15 -8 -10 -30 -15 -64 -15 -29 0 -57 -5 -64 -12 -6 -6 -33
-10 -60 -9 -34 1 -53 -4 -62 -14 -9 -11 -33 -15 -92 -15 -57 0 -84 -4 -94 -15
-11 -11 -29 -13 -72 -9 -46 5 -60 3 -71 -10 -11 -13 -33 -16 -106 -16 -73 0
-95 -3 -106 -16 -12 -14 -28 -16 -120 -10 -89 6 -109 4 -122 -9 -14 -13 -87
-15 -612 -15 -525 0 -598 2 -612 15 -13 13 -33 15 -122 9 -92 -6 -108 -4 -120
10 -11 13 -33 16 -106 16 -73 0 -95 3 -106 16 -11 13 -26 15 -71 11 -43 -4
-62 -1 -73 9 -9 10 -38 14 -93 14 -59 0 -83 4 -92 15 -9 10 -28 15 -62 14 -27
-1 -54 3 -60 9 -7 7 -35 12 -64 12 -34 0 -56 5 -64 15 -8 9 -29 15 -56 15 -23
0 -46 5 -49 10 -3 6 -30 10 -59 10 -35 0 -58 5 -66 15 -7 8 -25 15 -41 15 -15
0 -31 5 -34 10 -3 6 -26 10 -51 10 -30 0 -46 5 -50 15 -4 10 -20 15 -49 15
-24 0 -47 5 -50 10 -3 6 -19 10 -34 10 -16 0 -34 7 -41 15 -7 8 -25 15 -41 15
-15 0 -31 5 -34 10 -3 6 -26 10 -49 10 -27 0 -48 6 -56 15 -7 8 -22 15 -33 15
-25 0 -97 31 -97 42 0 4 -15 8 -34 8 -19 0 -36 5 -38 11 -2 6 -19 12 -38 13
-18 1 -36 8 -38 14 -2 7 -19 12 -37 12 -19 0 -36 4 -40 9 -8 14 -65 41 -85 41
-9 0 -38 11 -64 25 -26 14 -58 25 -70 25 -13 0 -29 7 -36 15 -7 8 -21 15 -31
15 -11 0 -19 5 -19 10 0 6 -8 10 -19 10 -10 0 -24 7 -31 15 -7 8 -22 15 -33
15 -25 0 -97 31 -97 42 0 4 -5 8 -12 8 -18 0 -88 33 -88 42 0 4 -5 8 -12 8
-18 0 -88 33 -88 42 0 4 -6 8 -13 8 -19 0 -327 157 -354 180 -13 11 -29 20
-37 20 -7 0 -19 7 -26 15 -7 8 -18 15 -25 15 -7 0 -23 11 -36 25 -13 13 -29
25 -35 25 -17 0 -67 27 -91 50 -12 11 -28 20 -36 20 -7 0 -24 11 -37 25 -13
14 -28 25 -34 25 -6 0 -22 10 -36 23 -25 23 -86 57 -102 57 -5 0 -28 18 -50
40 -23 22 -47 40 -53 40 -6 0 -22 11 -35 25 -13 14 -30 25 -37 25 -8 0 -26 11
-41 25 -15 14 -32 25 -37 25 -6 0 -26 16 -45 35 -19 19 -41 35 -49 35 -9 0
-38 23 -65 50 -27 28 -53 50 -59 50 -6 0 -36 25 -68 55 -32 30 -63 55 -69 55
-7 0 -39 27 -72 60 -34 33 -65 60 -71 60 -6 0 -70 58 -142 130 -73 71 -138
130 -146 130 -19 0 -249 231 -249 250 0 9 -56 71 -125 140 -69 69 -125 130
-125 136 0 6 -29 40 -65 75 -36 35 -65 70 -65 79 0 9 -22 38 -50 65 -27 27
-50 54 -50 60 0 7 -22 35 -50 63 -27 28 -50 57 -50 65 0 7 -18 31 -40 52 -22
21 -40 44 -40 51 0 7 -11 22 -25 35 -13 13 -25 31 -25 40 0 8 -16 30 -35 49
-19 19 -35 39 -35 45 0 5 -10 22 -23 36 -25 28 -57 85 -57 101 0 6 -11 21 -25
34 -14 13 -25 29 -25 37 0 7 -11 24 -25 37 -14 13 -25 30 -25 37 0 8 -11 24
-25 37 -14 13 -25 30 -25 38 0 9 -7 21 -15 28 -8 7 -15 19 -15 27 0 7 -9 24
-20 36 -23 24 -50 74 -50 92 0 6 -10 21 -23 33 -22 20 -38 50 -71 124 -9 20
-21 40 -26 43 -6 3 -10 13 -10 21 0 8 -11 32 -25 54 -14 22 -25 44 -25 50 0 6
-11 28 -25 50 -14 22 -25 46 -25 54 0 7 -7 19 -15 26 -8 7 -15 21 -15 31 0 11
-4 19 -10 19 -5 0 -10 8 -10 19 0 10 -7 24 -15 31 -8 7 -15 21 -15 31 0 11 -4
19 -10 19 -5 0 -10 8 -10 19 0 10 -7 24 -15 31 -8 7 -15 23 -15 36 0 14 -4 32
-9 42 -5 9 -12 24 -15 32 -4 8 -15 29 -25 45 -11 17 -20 42 -20 56 -1 15 -8
32 -16 39 -8 7 -15 21 -15 31 0 10 -5 21 -10 24 -6 3 -10 19 -10 35 0 16 -4
32 -10 35 -13 8 -38 64 -44 100 -3 16 -10 31 -16 33 -5 2 -10 19 -10 37 0 18
-5 35 -10 37 -6 2 -12 19 -15 38 -2 19 -9 36 -15 38 -5 2 -10 12 -10 22 0 9
-7 23 -15 30 -8 7 -15 25 -15 41 0 15 -4 31 -10 34 -5 3 -10 26 -10 49 0 27
-6 48 -15 56 -8 7 -15 25 -15 41 0 15 -5 31 -10 34 -6 3 -10 19 -10 34 0 16
-7 34 -15 41 -9 8 -15 30 -15 56 0 24 -4 44 -10 44 -5 0 -10 20 -10 44 0 26
-6 48 -15 56 -8 7 -15 25 -15 41 0 15 -5 31 -10 34 -6 3 -10 30 -10 59 0 35
-5 58 -15 66 -9 8 -15 29 -15 56 0 23 -4 46 -10 49 -5 3 -10 30 -10 59 0 35
-5 58 -15 66 -10 8 -15 31 -15 64 0 28 -7 59 -14 69 -9 12 -12 37 -8 85 3 54
1 70 -12 81 -12 10 -16 31 -16 80 -1 41 -6 73 -15 85 -11 14 -12 38 -8 102 5
72 4 84 -11 90 -14 5 -16 24 -16 126 0 82 -4 123 -12 132 -18 18 -18 1208 0
1214 8 2 12 40 12 122 0 96 3 120 16 131 14 11 16 27 11 95 -4 62 -2 86 8 100
9 12 14 44 15 86 0 52 4 69 16 76 14 8 16 21 12 81 -4 50 -1 76 8 88 7 10 14
41 14 69 0 33 5 56 15 64 10 8 15 31 15 66 0 29 5 56 10 59 6 3 10 26 10 49 0
27 6 48 15 56 10 8 15 31 15 66 0 29 5 56 10 59 6 3 10 19 10 34 0 16 7 34 15
41 9 8 15 30 15 56 0 24 5 44 10 44 6 0 10 20 10 44 0 26 6 48 15 56 8 7 15
25 15 41 0 15 5 31 10 34 6 3 10 19 10 34 0 16 7 34 15 41 9 8 15 29 15 56 0
23 4 46 10 49 5 3 10 19 10 34 0 16 7 34 15 41 8 7 15 21 15 30 0 10 5 20 10
22 6 2 13 19 15 38 3 19 9 36 15 38 5 2 10 19 10 37 0 18 5 35 11 37 5 2 12
19 15 38 3 19 10 37 15 38 5 2 9 12 9 22 0 9 7 23 15 30 8 7 15 25 15 41 0 15
5 31 10 34 6 3 10 14 10 24 0 10 7 24 15 31 8 7 15 24 16 39 0 14 9 40 20 56
10 17 21 37 25 45 3 8 10 23 15 32 5 10 9 28 9 42 0 13 7 29 15 36 8 7 15 21
15 31 0 11 5 19 10 19 6 0 10 8 10 19 0 10 7 24 15 31 8 7 15 21 15 31 0 11 5
19 10 19 6 0 10 8 10 19 0 10 7 24 15 31 8 7 15 21 15 30 0 10 3 20 8 22 4 2
15 21 26 43 10 22 21 47 25 55 9 18 40 79 52 100 5 8 16 31 25 50 37 80 50
102 72 122 12 12 22 27 22 33 0 18 27 68 50 92 11 12 20 29 20 36 0 8 7 20 15
27 8 7 15 18 15 24 0 6 11 23 25 38 14 15 25 33 25 41 0 7 11 24 25 37 14 13
25 30 25 37 0 8 11 24 25 37 14 13 25 28 25 34 0 16 32 73 57 101 13 14 23 31
23 36 0 6 16 26 35 45 19 19 35 41 35 51 0 9 11 25 25 35 14 10 25 26 25 34 0
9 18 34 40 55 22 21 40 45 40 53 0 8 23 36 50 63 28 27 50 55 50 62 0 7 22 35
50 62 27 27 50 56 50 64 0 8 29 43 65 79 36 35 65 69 65 76 0 6 56 67 125 136
69 69 125 131 125 140 0 19 230 250 249 250 8 0 73 59 146 130 72 72 136 130
142 130 7 0 38 27 70 60 32 33 65 60 73 60 9 0 34 18 55 41 22 23 57 52 77 65
20 13 55 41 78 64 22 22 46 40 53 40 7 0 28 16 47 35 19 19 39 35 45 35 5 0
22 11 37 25 15 14 33 25 41 25 7 0 24 11 37 25 13 14 29 25 35 25 6 0 30 18
54 40 23 22 46 40 50 40 16 0 77 35 101 57 14 13 30 23 36 23 6 0 21 11 34 25
13 14 30 25 37 25 8 0 24 9 36 20 24 23 74 50 92 50 6 0 22 11 35 25 13 14 29
25 36 25 6 0 17 7 24 15 7 8 19 15 26 15 8 0 24 9 37 20 27 23 335 180 355
180 6 0 12 4 12 8 0 9 70 42 88 42 7 0 12 4 12 8 0 9 70 42 88 42 7 0 12 4 12
8 0 11 72 42 97 42 11 0 26 7 33 15 7 8 18 15 25 15 16 0 73 29 80 41 4 5 19
9 35 9 16 0 32 5 35 10 3 6 14 10 24 10 10 0 24 7 31 15 7 8 22 15 35 15 24 0
81 26 90 41 4 5 22 9 41 9 19 0 34 5 34 10 0 6 13 10 29 10 16 0 36 7 45 15 8
8 28 15 45 15 16 0 32 4 36 9 9 15 66 41 90 41 13 0 28 7 35 15 8 9 29 15 56
15 23 0 46 5 49 10 3 6 19 10 34 10 16 0 34 7 41 15 7 8 25 15 41 15 15 0 31
5 34 10 3 6 24 10 46 10 23 0 47 7 55 15 9 8 33 15 54 15 21 0 42 5 45 10 3 6
19 10 34 10 16 0 34 7 41 15 8 10 31 15 66 15 29 0 56 5 59 10 3 6 26 10 49
10 27 0 48 6 56 15 8 10 31 15 66 15 29 0 56 5 59 10 3 6 30 10 59 10 35 0 58
5 66 15 9 11 34 15 96 15 49 0 84 4 84 10 0 6 30 10 69 10 49 0 72 4 81 15 9
11 35 15 105 15 72 0 95 3 106 16 11 13 29 14 119 9 91 -6 109 -5 121 8 12 15
80 16 612 17 538 0 600 -2 615 -16z"/>
<path d="M7859 12458 c12 -16 32 -18 155 -19 77 0 207 -6 288 -12 81 -7 144
-9 140 -6 -11 10 -311 29 -447 29 -83 0 -125 4 -135 13 -12 10 -12 9 -1 -5z"/>
<path d="M7370 12438 c-69 -5 -128 -13 -132 -17 -4 -4 25 -3 65 1 39 3 98 7
129 7 31 1 60 6 63 11 3 6 5 9 3 9 -2 -1 -59 -6 -128 -11z"/>
<path d="M7572 12443 c37 -2 100 -2 140 0 40 1 10 3 -67 3 -77 0 -110 -1 -73
-3z"/>
<path d="M6998 12386 c-36 -6 -69 -14 -72 -17 -9 -9 128 13 139 22 5 5 7 8 5
8 -3 -1 -35 -7 -72 -13z"/>
<path d="M8650 12383 c14 -2 47 -8 73 -12 27 -5 45 -5 40 0 -4 4 -37 10 -73
12 -36 3 -54 3 -40 0z"/>
<path d="M8945 12331 c4 -3 31 -11 61 -17 30 -6 51 -7 47 -3 -9 9 -116 29
-108 20z"/>
<path d="M6690 12323 c-14 -3 -29 -8 -34 -13 -7 -7 62 4 89 15 13 5 -23 3 -55
-2z"/>
<path d="M6483 12266 c-56 -15 -65 -27 -11 -15 24 6 47 14 53 20 5 5 7 8 5 8
-3 -1 -24 -7 -47 -13z"/>
<path d="M9185 12272 c3 -3 26 -11 51 -18 25 -6 42 -8 37 -3 -4 4 -27 12 -51
18 -24 5 -41 6 -37 3z"/>
<path d="M6330 12215 c-47 -18 -27 -18 30 -1 25 8 36 15 25 15 -11 0 -36 -7
-55 -14z"/>
<path d="M9365 12214 c28 -7 55 -13 60 -13 17 2 -69 27 -90 27 -11 0 3 -6 30
-14z"/>
<path d="M6240 12180 c-8 -5 -24 -10 -36 -10 -11 0 -29 -7 -40 -16 -18 -15
-18 -15 3 -5 12 6 30 11 40 11 11 0 28 7 39 15 21 16 17 20 -6 5z"/>
<path d="M9470 12185 c0 -7 45 -25 87 -35 19 -5 31 -4 27 1 -3 5 -13 9 -23 9
-10 0 -35 7 -55 15 -20 8 -36 13 -36 10z"/>
<path d="M6055 12113 c-31 -7 -40 -21 -11 -16 15 3 29 9 32 14 3 5 4 8 2 8 -2
-1 -12 -3 -23 -6z"/>
<path d="M9668 12108 c6 -6 18 -8 28 -6 14 3 12 5 -9 10 -19 3 -25 2 -19 -4z"/>
<path d="M5904 12044 c-18 -14 -18 -14 6 -3 31 14 36 19 24 19 -6 0 -19 -7
-30 -16z"/>
<path d="M9815 12050 c3 -4 14 -10 25 -13 11 -3 18 -2 15 3 -3 4 -14 10 -25
13 -11 3 -18 2 -15 -3z"/>
<path d="M9920 12000 c19 -11 40 -19 45 -19 6 0 -6 8 -25 19 -19 11 -39 19
-45 19 -5 0 6 -8 25 -19z"/>
<path d="M5803 12000 c-34 -14 -28 -21 7 -9 17 6 30 13 30 15 0 6 -12 4 -37
-6z"/>
<path d="M5708 11954 c-38 -20 -36 -28 2 -9 17 9 30 18 30 20 0 7 -1 6 -32
-11z"/>
<path d="M10010 11966 c0 -3 14 -12 30 -21 17 -9 30 -13 30 -11 0 3 -13 12
-30 21 -16 9 -30 13 -30 11z"/>
<path d="M10130 11907 c0 -3 12 -12 26 -22 15 -9 23 -12 20 -6 -7 11 -46 35
-46 28z"/>
<path d="M5596 11891 c-4 -5 3 -7 14 -4 23 6 26 13 6 13 -8 0 -17 -4 -20 -9z"/>
<path d="M5480 11829 c-22 -18 -22 -19 -3 -10 12 6 25 16 28 21 9 15 3 12 -25
-11z"/>
<path d="M10240 11846 c0 -2 16 -13 36 -25 19 -12 32 -16 29 -11 -7 11 -65 43
-65 36z"/>
<path d="M10330 11797 c0 -3 12 -12 26 -22 15 -9 23 -12 20 -6 -7 11 -46 35
-46 28z"/>
<path d="M5327 11735 c-20 -14 -37 -28 -37 -31 0 -2 18 8 40 22 35 23 47 34
37 34 -1 0 -19 -11 -40 -25z"/>
<path d="M10390 11757 c0 -2 15 -14 33 -27 20 -15 27 -17 18 -6 -13 16 -51 41
-51 33z"/>
<path d="M10490 11697 c0 -3 12 -12 26 -22 15 -9 23 -12 20 -6 -7 11 -46 35
-46 28z"/>
<path d="M5250 11680 c-9 -6 -10 -10 -3 -10 6 0 15 5 18 10 8 12 4 12 -15 0z"/>
<path d="M5160 11619 l-35 -30 38 26 c33 24 43 35 34 35 -1 0 -18 -14 -37 -31z"/>
<path d="M10650 11587 c0 -2 15 -14 33 -27 20 -15 27 -17 18 -6 -13 16 -51 41
-51 33z"/>
<path d="M5078 11563 c7 -3 16 -2 19 1 4 3 -2 6 -13 5 -11 0 -14 -3 -6 -6z"/>
<path d="M10755 11506 c22 -19 47 -35 55 -35 10 -1 7 4 -7 12 -11 6 -36 23
-55 36 -27 19 -26 17 7 -13z"/>
<path d="M4975 11482 c-43 -39 -33 -34 23 11 19 15 30 27 25 27 -4 0 -26 -17
-48 -38z"/>
<path d="M4889 11413 l-24 -28 28 24 c25 23 32 31 24 31 -2 0 -14 -12 -28 -27z"/>
<path d="M10860 11437 c0 -2 15 -16 33 -33 l32 -29 -29 33 c-28 30 -36 37 -36
29z"/>
<path d="M10933 11374 c9 -15 147 -138 147 -131 0 2 -35 35 -77 73 -42 38 -74
64 -70 58z"/>
<path d="M4739 11293 l-24 -28 28 24 c25 23 32 31 24 31 -2 0 -14 -12 -28 -27z"/>
<path d="M4679 11233 c-13 -16 -12 -17 4 -4 16 13 21 21 13 21 -2 0 -10 -8
-17 -17z"/>
<path d="M4636 11205 c-11 -8 -17 -17 -14 -20 2 -3 13 4 23 15 21 23 18 25 -9
5z"/>
<path d="M11110 11206 c0 -2 8 -10 18 -17 15 -13 16 -12 3 4 -13 16 -21 21
-21 13z"/>
<path d="M4559 11119 l-54 -51 58 48 c52 44 62 54 54 54 -2 0 -28 -23 -58 -51z"/>
<path d="M4456 11021 c-16 -16 -26 -35 -23 -43 4 -9 6 -9 6 3 1 17 37 53 61
62 13 5 13 6 -1 6 -8 1 -28 -12 -43 -28z"/>
<path d="M11311 11005 c18 -19 35 -35 37 -35 3 0 -4 10 -16 23 -12 13 -22 29
-22 35 0 7 -7 12 -15 12 -11 0 -6 -11 16 -35z"/>
<path d="M4389 10943 l-24 -28 28 24 c25 23 32 31 24 31 -2 0 -14 -12 -28 -27z"/>
<path d="M11390 10926 c0 -2 8 -10 18 -17 15 -13 16 -12 3 4 -13 16 -21 21
-21 13z"/>
<path d="M4330 10880 c-6 -11 -8 -20 -6 -20 3 0 10 9 16 20 6 11 8 20 6 20 -3
0 -10 -9 -16 -20z"/>
<path d="M11430 10877 c0 -2 15 -16 33 -33 l32 -29 -29 33 c-28 30 -36 37 -36
29z"/>
<path d="M11490 10807 c0 -2 15 -16 33 -33 l32 -29 -29 33 c-28 30 -36 37 -36
29z"/>
<path d="M4219 10743 l-24 -28 28 24 c25 23 32 31 24 31 -2 0 -14 -12 -28 -27z"/>
<path d="M11550 10736 c0 -2 8 -10 18 -17 15 -13 16 -12 3 4 -13 16 -21 21
-21 13z"/>
<path d="M4154 10663 c-51 -64 -57 -73 -52 -73 3 0 26 27 51 60 26 33 45 60
43 60 -3 0 -22 -21 -42 -47z"/>
<path d="M11680 10560 c11 -16 26 -33 32 -36 7 -4 -1 9 -16 29 -34 44 -46 50
-16 7z"/>
<path d="M11720 10506 c0 -9 90 -136 97 -136 2 0 -6 15 -18 33 -60 84 -79 109
-79 103z"/>
<path d="M4014 10475 c-9 -14 -15 -27 -13 -30 3 -2 12 10 21 26 21 36 15 39
-8 4z"/>
<path d="M3939 10363 c-13 -16 -12 -17 4 -4 9 7 17 15 17 17 0 8 -8 3 -21 -13z"/>
<path d="M11827 10339 c4 -13 8 -18 11 -10 2 7 -1 18 -6 23 -8 8 -9 4 -5 -13z"/>
<path d="M3905 10314 c-9 -15 -12 -23 -6 -20 11 7 35 46 28 46 -3 0 -12 -12
-22 -26z"/>
<path d="M3856 10235 c-9 -26 -7 -32 5 -12 6 10 9 21 6 23 -2 3 -7 -2 -11 -11z"/>
<path d="M7485 10170 l-30 -8 27 -1 c15 0 30 4 33 9 3 6 5 9 3 9 -2 -1 -16 -5
-33 -9z"/>
<path d="M8139 10167 c5 -5 21 -7 37 -5 27 3 26 4 -8 9 -22 3 -34 1 -29 -4z"/>
<path d="M7400 10163 c-49 -6 -58 -19 -10 -15 22 2 43 8 46 13 3 5 4 8 2 7 -2
0 -19 -3 -38 -5z"/>
<path d="M8219 10157 c5 -5 24 -7 42 -5 33 3 33 4 -8 8 -23 3 -39 2 -34 -3z"/>
<path d="M11970 10090 c22 -44 42 -80 45 -80 3 0 -13 36 -35 80 -22 44 -42 80
-45 80 -3 0 13 -36 35 -80z"/>
<path d="M3785 10119 c-4 -6 -5 -12 -2 -15 2 -3 7 2 10 11 7 17 1 20 -8 4z"/>
<path d="M8466 10111 c5 -5 29 -13 53 -19 24 -6 40 -7 35 -3 -5 5 -29 13 -53
19 -24 6 -40 7 -35 3z"/>
<path d="M7130 10100 c-20 -6 -21 -8 -5 -8 11 0 31 4 45 8 20 6 21 8 5 8 -11
0 -31 -4 -45 -8z"/>
<path d="M8626 10061 c12 -10 103 -35 109 -29 2 2 -23 11 -57 20 -33 9 -57 13
-52 9z"/>
<path d="M6971 10049 c-18 -6 -31 -12 -29 -14 2 -3 24 1 49 9 49 16 33 20 -20
5z"/>
<path d="M3743 10035 c-3 -9 -3 -18 -1 -21 3 -3 8 4 11 16 6 23 -1 27 -10 5z"/>
<path d="M6880 10005 c-14 -8 -20 -14 -14 -15 5 0 19 7 30 15 24 18 16 19 -16
0z"/>
<path d="M8780 10002 c8 -5 26 -13 40 -16 17 -5 20 -4 10 2 -8 5 -26 13 -40
16 -17 5 -20 4 -10 -2z"/>
<path d="M3697 9946 c-15 -24 -27 -49 -26 -57 0 -8 5 -3 10 10 5 13 19 36 30
53 12 16 19 31 17 33 -2 2 -16 -15 -31 -39z"/>
<path d="M12045 9940 c9 -16 18 -30 21 -30 2 0 -2 14 -11 30 -9 17 -18 30 -21
30 -2 0 2 -13 11 -30z"/>
<path d="M6750 9950 c-8 -5 -10 -10 -5 -10 6 0 17 5 25 10 8 5 11 10 5 10 -5
0 -17 -5 -25 -10z"/>
<path d="M8900 9956 c0 -2 8 -10 18 -17 15 -13 16 -12 3 4 -13 16 -21 21 -21
13z"/>
<path d="M8990 9906 c0 -2 16 -13 36 -25 19 -12 32 -16 29 -11 -7 11 -65 43
-65 36z"/>
<path d="M6638 9883 c7 -3 16 -2 19 1 4 3 -2 6 -13 5 -11 0 -14 -3 -6 -6z"/>
<path d="M6565 9834 l-30 -26 33 22 c17 12 32 23 32 26 0 7 -4 5 -35 -22z"/>
<path d="M3639 9833 c-13 -16 -12 -17 4 -4 16 13 21 21 13 21 -2 0 -10 -8 -17
-17z"/>
<path d="M9104 9841 c7 -11 46 -35 46 -28 0 3 -12 12 -26 22 -15 9 -23 12 -20
6z"/>
<path d="M12100 9820 c6 -11 13 -20 16 -20 2 0 0 9 -6 20 -6 11 -13 20 -16 20
-2 0 0 -9 6 -20z"/>
<path d="M9172 9794 c9 -9 21 -15 27 -13 6 2 -2 10 -17 17 -25 11 -25 11 -10
-4z"/>
<path d="M6434 9748 l-19 -23 23 19 c12 11 22 21 22 23 0 8 -8 2 -26 -19z"/>
<path d="M9248 9733 c7 -3 16 -2 19 1 4 3 -2 6 -13 5 -11 0 -14 -3 -6 -6z"/>
<path d="M3580 9709 c-7 -11 -10 -23 -7 -25 2 -2 9 7 15 21 14 30 7 33 -8 4z"/>
<path d="M6354 9678 l-29 -33 33 29 c30 28 37 36 29 36 -2 0 -16 -15 -33 -32z"/>
<path d="M9325 9680 c10 -11 20 -20 23 -20 3 0 -3 9 -13 20 -10 11 -20 20 -23
20 -3 0 3 -9 13 -20z"/>
<path d="M12161 9662 c6 -18 15 -35 20 -38 5 -3 4 7 -3 23 -17 41 -30 53 -17
15z"/>
<path d="M9360 9658 c0 -3 39 -42 86 -88 48 -46 85 -79 83 -74 -5 12 -169 169
-169 162z"/>
<path d="M6284 9618 l-29 -33 33 29 c30 28 37 36 29 36 -2 0 -16 -15 -33 -32z"/>
<path d="M12207 9539 c8 -30 19 -58 23 -63 5 -5 2 16 -7 45 -8 30 -19 58 -23
63 -5 5 -2 -16 7 -45z"/>
<path d="M3520 9560 c-6 -11 -8 -20 -6 -20 3 0 10 9 16 20 6 11 8 20 6 20 -3
0 -10 -9 -16 -20z"/>
<path d="M6124 9458 c-54 -57 -120 -135 -83 -98 42 41 152 160 148 160 -3 0
-32 -28 -65 -62z"/>
<path d="M3477 9463 c-3 -10 -10 -33 -16 -52 -6 -19 -7 -30 -3 -25 12 14 35
85 29 90 -2 3 -7 -3 -10 -13z"/>
<path d="M9550 9475 c0 -6 119 -147 148 -175 25 -24 -41 60 -97 123 -28 32
-51 55 -51 52z"/>
<path d="M12251 9419 c-1 -8 6 -24 15 -35 15 -19 15 -19 6 1 -5 11 -12 27 -15
35 -5 13 -6 13 -6 -1z"/>
<path d="M3443 9358 c-13 -18 -33 -89 -23 -83 5 3 12 20 15 38 4 17 12 38 17
45 6 6 8 12 5 12 -2 0 -9 -6 -14 -12z"/>
<path d="M5999 9313 l-24 -28 28 24 c15 14 27 26 27 28 0 8 -8 1 -31 -24z"/>
<path d="M9730 9241 c0 -6 4 -13 10 -16 6 -3 7 1 4 9 -7 18 -14 21 -14 7z"/>
<path d="M12316 9195 c3 -22 10 -44 14 -49 5 -5 5 8 -1 30 -15 57 -20 64 -13
19z"/>
<path d="M5875 9140 c-21 -28 -36 -52 -34 -54 2 -2 21 20 42 50 48 68 41 71
-8 4z"/>
<path d="M9785 9166 c10 -14 19 -26 22 -26 7 0 -17 39 -28 46 -6 3 -3 -5 6
-20z"/>
<path d="M3373 9143 c-3 -10 -8 -22 -11 -27 -3 -5 0 -6 5 -3 11 7 25 47 17 47
-3 0 -7 -8 -11 -17z"/>
<path d="M9821 9113 c7 -12 15 -20 18 -17 3 2 -3 12 -13 22 -17 16 -18 16 -5
-5z"/>
<path d="M9876 9015 c24 -39 24 -40 24 -28 0 6 -9 21 -21 34 l-20 24 17 -30z"/>
<path d="M5803 9018 c-15 -20 -25 -38 -20 -38 3 0 12 11 21 25 17 26 16 35 -1
13z"/>
<path d="M12374 8911 c6 -38 14 -72 17 -75 8 -8 -12 127 -20 137 -4 4 -2 -24
3 -62z"/>
<path d="M3315 8928 c-11 -32 -23 -99 -15 -92 9 10 30 104 23 104 -2 0 -6 -6
-8 -12z"/>
<path d="M5735 8890 c-9 -16 -13 -30 -11 -30 3 0 12 14 21 30 9 17 13 30 11
30 -3 0 -12 -13 -21 -30z"/>
<path d="M9944 8876 c16 -46 28 -59 16 -16 -5 19 -14 38 -19 43 -5 5 -4 -7 3
-27z"/>
<path d="M5695 8809 c-4 -6 -5 -12 -2 -15 2 -3 7 2 10 11 7 17 1 20 -8 4z"/>
<path d="M5661 8727 c-29 -64 -43 -109 -30 -102 5 4 9 13 9 22 0 8 11 38 25
66 14 27 24 53 23 58 -2 4 -14 -16 -27 -44z"/>
<path d="M10000 8740 c6 -11 13 -20 16 -20 2 0 0 9 -6 20 -6 11 -13 20 -16 20
-2 0 0 -9 6 -20z"/>
<path d="M3265 8708 c-8 -23 -22 -148 -16 -142 3 3 11 39 16 80 10 70 10 90 0
62z"/>
<path d="M12417 8643 c2 -15 8 -80 13 -143 l9 -115 -5 135 c-3 74 -9 139 -13
143 -4 4 -6 -5 -4 -20z"/>
<path d="M10039 8633 c6 -12 11 -31 11 -42 0 -11 4 -22 9 -25 13 -8 -5 64 -19
78 -10 8 -10 6 -1 -11z"/>
<path d="M5596 8552 c-8 -14 -25 -94 -18 -87 7 6 31 95 26 95 -2 0 -5 -4 -8
-8z"/>
<path d="M3239 8522 c-3 -20 -2 -29 4 -23 5 5 7 19 5 32 -3 20 -5 19 -9 -9z"/>
<path d="M10094 8431 c6 -33 14 -62 17 -65 9 -9 -12 107 -20 117 -4 4 -3 -19
3 -52z"/>
<path d="M3215 8400 c-3 -6 0 -12 7 -15 7 -3 537 -4 1178 -3 l1165 3 -1173 3
c-779 1 -1171 5 -1167 12 3 6 4 10 1 10 -3 0 -8 -5 -11 -10z"/>
<path d="M12445 5905 c0 -1364 1 -1921 2 -1237 2 684 2 1800 0 2480 -1 680 -2
121 -2 -1243z"/>
<path d="M10150 8087 l5 -72 3 64 c2 35 -1 68 -5 72 -4 4 -6 -24 -3 -64z"/>
<path d="M10162 6783 c-1 -677 1 -1234 6 -1236 6 -5 6 848 -1 2023 -1 245 -3
-109 -5 -787z"/>
<path d="M5585 7126 c2 -22 9 -44 15 -50 7 -7 8 -2 1 19 -5 17 -12 39 -15 50
-3 11 -3 2 -1 -19z"/>
<path d="M3242 7125 c0 -16 5 -64 12 -105 8 -41 14 -64 14 -50 0 14 -5 61 -13
105 -7 44 -13 67 -13 50z"/>
<path d="M5632 7000 c0 -8 4 -26 8 -40 6 -20 8 -21 8 -5 0 11 -3 29 -8 40 -5
12 -8 14 -8 5z"/>
<path d="M5672 6893 c6 -16 18 -35 25 -43 7 -8 4 4 -7 28 -23 47 -36 58 -18
15z"/>
<path d="M3301 6784 c5 -25 14 -53 20 -62 9 -15 10 -14 4 3 -4 11 -9 37 -12
58 -3 21 -9 40 -13 42 -4 2 -4 -16 1 -41z"/>
<path d="M5730 6763 c0 -4 5 -15 10 -23 8 -13 10 -13 10 2 0 9 -4 20 -10 23
-5 3 -10 3 -10 -2z"/>
<path d="M5790 6661 c5 -11 15 -23 21 -27 6 -3 3 5 -6 20 -20 30 -30 35 -15 7z"/>
<path d="M5850 6561 c5 -11 15 -23 21 -27 6 -3 3 5 -6 20 -20 30 -30 35 -15 7z"/>
<path d="M3365 6535 c4 -22 11 -44 15 -49 5 -4 4 11 -1 35 -13 56 -23 66 -14
14z"/>
<path d="M5895 6500 c10 -11 20 -20 23 -20 3 0 -3 9 -13 20 -10 11 -20 20 -23
20 -3 0 3 -9 13 -20z"/>
<path d="M3425 6350 c3 -19 10 -39 15 -44 7 -7 7 -1 1 19 -17 54 -21 61 -16
25z"/>
<path d="M6060 6293 c35 -40 66 -73 70 -73 8 0 -21 32 -96 108 -21 20 -9 4 26
-35z"/>
<path d="M3466 6240 c3 -14 8 -37 11 -53 3 -15 9 -29 13 -32 9 -6 -3 50 -19
85 l-12 25 7 -25z"/>
<path d="M6149 6197 c16 -20 91 -81 91 -74 0 2 -24 24 -52 48 -29 24 -47 36
-39 26z"/>
<path d="M3506 6127 c3 -10 9 -15 12 -12 3 3 0 11 -7 18 -10 9 -11 8 -5 -6z"/>
<path d="M6277 6080 c18 -19 34 -32 36 -29 2 2 -12 17 -32 33 l-36 30 32 -34z"/>
<path d="M3520 6086 c0 -8 4 -17 9 -20 5 -4 7 3 4 14 -6 23 -13 26 -13 6z"/>
<path d="M6352 6014 c9 -9 21 -15 27 -13 6 2 -2 10 -17 17 -25 11 -25 11 -10
-4z"/>
<path d="M3575 5960 c9 -16 18 -30 21 -30 2 0 -2 14 -11 30 -9 17 -18 30 -21
30 -2 0 2 -13 11 -30z"/>
<path d="M6445 5950 c10 -11 20 -20 23 -20 3 0 -3 9 -13 20 -10 11 -20 20 -23
20 -3 0 3 -9 13 -20z"/>
<path d="M6490 5916 c17 -21 70 -49 78 -42 3 3 1 6 -5 6 -6 0 -28 12 -49 26
-21 15 -32 19 -24 10z"/>
<path d="M6580 5865 c0 -2 21 -18 47 -35 26 -18 41 -25 34 -17 -13 16 -81 60
-81 52z"/>
<path d="M6699 5789 c14 -5 30 -13 36 -17 6 -4 2 1 -8 11 -11 9 -27 17 -36 16
-10 0 -7 -4 8 -10z"/>
<path d="M3678 5740 c9 -21 18 -35 20 -30 3 9 -25 70 -33 70 -2 0 4 -18 13
-40z"/>
<path d="M6800 5746 c0 -3 9 -10 20 -16 11 -6 20 -8 20 -6 0 3 -9 10 -20 16
-11 6 -20 8 -20 6z"/>
<path d="M8946 5685 c-7 -19 -8 -2310 -1 -2303 5 4 13 2318 9 2318 -1 0 -5 -7
-8 -15z"/>
<path d="M6925 5682 c16 -13 67 -33 61 -23 -3 5 -20 14 -38 20 -18 6 -28 8
-23 3z"/>
<path d="M8884 5674 c-18 -14 -18 -15 4 -4 12 6 22 13 22 15 0 8 -5 6 -26 -11z"/>
<path d="M3730 5641 c5 -11 15 -23 21 -27 6 -3 3 5 -6 20 -20 30 -30 35 -15 7z"/>
<path d="M8723 5626 c-44 -16 -53 -28 -13 -16 19 5 38 14 44 20 11 11 12 12
-31 -4z"/>
<path d="M7070 5627 c0 -3 15 -10 32 -16 18 -6 28 -7 23 -2 -12 10 -55 25 -55
18z"/>
<path d="M7176 5589 c5 -8 105 -31 111 -26 2 2 -23 11 -56 19 -33 8 -58 11
-55 7z"/>
<path d="M8538 5576 c-31 -6 -59 -14 -63 -17 -3 -4 29 0 72 8 43 8 80 17 82
19 7 6 -28 3 -91 -10z"/>
<path d="M3790 5531 c5 -11 15 -23 21 -27 6 -3 3 5 -6 20 -20 30 -30 35 -15 7z"/>
<path d="M7417 5529 c4 -4 42 -10 83 -12 41 -3 62 -3 45 0 -16 2 -54 8 -83 12
-29 5 -50 5 -45 0z"/>
<path d="M8295 5530 c-27 -5 -71 -9 -97 -9 -26 -1 -49 -5 -52 -9 -6 -11 187 8
199 19 5 5 7 8 5 8 -3 -1 -27 -5 -55 -9z"/>
<path d="M3860 5410 c12 -16 24 -30 26 -30 3 0 -4 14 -16 30 -12 17 -24 30
-26 30 -3 0 4 -13 16 -30z"/>
<path d="M3950 5270 c12 -16 24 -30 26 -30 3 0 -4 14 -16 30 -12 17 -24 30
-26 30 -3 0 4 -13 16 -30z"/>
<path d="M10212 5230 c0 -14 4 -38 8 -55 7 -27 8 -27 8 -5 0 14 -4 39 -8 55
-7 27 -8 27 -8 5z"/>
<path d="M4000 5201 c5 -11 15 -23 21 -27 6 -3 3 5 -6 20 -20 30 -30 35 -15 7z"/>
<path d="M4060 5113 c0 -5 10 -18 23 -29 l22 -19 -20 25 c-11 14 -21 27 -22
29 -2 2 -3 0 -3 -6z"/>
<path d="M4115 5040 c10 -11 20 -20 23 -20 3 0 -3 9 -13 20 -10 11 -20 20 -23
20 -3 0 3 -9 13 -20z"/>
<path d="M10261 5024 c6 -22 15 -43 19 -48 5 -5 3 10 -3 32 -16 53 -29 66 -16
16z"/>
<path d="M4153 4994 c9 -11 17 -26 17 -32 0 -6 4 -13 9 -16 18 -12 -2 33 -22
51 -22 18 -22 18 -4 -3z"/>
<path d="M10300 4929 c0 -9 7 -32 15 -50 18 -44 19 -26 0 26 -8 22 -14 33 -15
24z"/>
<path d="M4211 4920 c0 -8 38 -57 84 -108 47 -51 85 -90 85 -86 0 3 -35 44
-77 90 -43 47 -81 93 -85 102 -5 13 -7 14 -7 2z"/>
<path d="M10362 4759 c6 -16 12 -28 14 -26 5 5 -13 57 -20 57 -3 0 0 -14 6
-31z"/>
<path d="M4390 4714 c0 -5 33 -41 73 -79 l72 -70 -70 75 c-38 41 -71 76 -72
79 -2 2 -3 0 -3 -5z"/>
<path d="M10421 4649 c-1 -8 6 -24 15 -35 15 -19 15 -19 6 1 -5 11 -12 27 -15
35 -5 13 -6 13 -6 -1z"/>
<path d="M4540 4556 c0 -2 8 -10 18 -17 15 -13 16 -12 3 4 -13 16 -21 21 -21
13z"/>
<path d="M10480 4531 c0 -6 4 -13 10 -16 6 -3 7 1 4 9 -7 18 -14 21 -14 7z"/>
<path d="M4600 4498 c0 -3 51 -51 113 -108 61 -57 101 -91 87 -76 -30 34 -200
190 -200 184z"/>
<path d="M10510 4493 c0 -5 20 -38 45 -73 25 -35 45 -61 45 -57 0 4 -20 36
-45 73 -25 36 -45 61 -45 57z"/>
<path d="M10620 4317 c0 -2 15 -16 33 -33 l32 -29 -29 33 c-28 30 -36 37 -36
29z"/>
<path d="M4830 4287 c0 -2 15 -16 33 -33 l32 -29 -29 33 c-28 30 -36 37 -36
29z"/>
<path d="M10721 4204 c13 -17 26 -30 28 -27 3 2 -8 16 -24 31 l-28 27 24 -31z"/>
<path d="M4968 4179 c14 -19 132 -112 132 -106 0 3 -33 31 -72 63 -40 32 -67
51 -60 43z"/>
<path d="M10780 4135 c13 -14 26 -25 28 -25 3 0 -5 11 -18 25 -13 14 -26 25
-28 25 -3 0 5 -11 18 -25z"/>
<path d="M5110 4066 c0 -2 7 -9 15 -16 13 -11 14 -10 9 4 -5 14 -24 23 -24 12z"/>
<path d="M5180 4016 c0 -3 9 -10 20 -16 11 -6 20 -8 20 -6 0 3 -9 10 -20 16
-11 6 -20 8 -20 6z"/>
<path d="M10960 3967 c0 -2 15 -16 33 -33 l32 -29 -29 33 c-28 30 -36 37 -36
29z"/>
<path d="M5287 3939 c7 -7 15 -10 18 -7 3 3 -2 9 -12 12 -14 6 -15 5 -6 -5z"/>
<path d="M5364 3896 c11 -9 24 -16 30 -16 12 0 7 5 -24 19 -24 11 -24 11 -6
-3z"/>
<path d="M11048 3889 c25 -23 33 -24 26 -5 -3 8 -15 16 -26 19 l-20 6 20 -20z"/>
<path d="M11102 3844 c10 -10 20 -16 22 -13 3 3 -5 11 -17 18 -21 13 -21 12
-5 -5z"/>
<path d="M5530 3796 c0 -3 9 -10 20 -16 11 -6 20 -8 20 -6 0 3 -9 10 -20 16
-11 6 -20 8 -20 6z"/>
<path d="M11180 3796 c0 -3 9 -10 20 -16 11 -6 20 -8 20 -6 0 3 -9 10 -20 16
-11 6 -20 8 -20 6z"/>
<path d="M5629 3741 c13 -12 28 -21 34 -21 12 0 11 0 -28 24 l-30 17 24 -20z"/>
<path d="M11282 3734 c10 -10 20 -16 22 -13 3 3 -5 11 -17 18 -21 13 -21 12
-5 -5z"/>
<path d="M5769 3671 c13 -12 28 -21 34 -21 12 0 11 0 -28 24 l-30 17 24 -20z"/>
<path d="M11400 3669 c13 -6 31 -16 40 -24 8 -7 35 -20 60 -29 38 -13 42 -13
26 0 -11 7 -27 14 -36 14 -9 0 -31 11 -50 25 -19 14 -41 25 -49 24 -9 0 -5 -5
9 -10z"/>
<path d="M5842 3634 c9 -9 21 -15 27 -13 6 2 -2 10 -17 17 -25 11 -25 11 -10
-4z"/>
<path d="M5950 3584 c0 -7 52 -25 57 -20 2 2 -10 8 -26 14 -17 6 -31 9 -31 6z"/>
<path d="M11598 3573 c7 -3 16 -2 19 1 4 3 -2 6 -13 5 -11 0 -14 -3 -6 -6z"/>
<path d="M11630 3566 c0 -2 7 -7 16 -10 8 -3 12 -2 9 4 -6 10 -25 14 -25 6z"/>
<path d="M6110 3526 c0 -3 9 -10 20 -16 11 -6 20 -8 20 -6 0 3 -9 10 -20 16
-11 6 -20 8 -20 6z"/>
<path d="M11745 3519 c3 -4 18 -9 34 -11 17 -2 28 -1 26 3 -3 4 -18 9 -34 11
-17 2 -28 1 -26 -3z"/>
<path d="M11935 3470 c2 -4 46 -13 97 -19 51 -7 99 -15 106 -17 7 -2 10 1 7 6
-3 6 -21 10 -38 11 -18 0 -64 6 -104 13 -40 7 -70 10 -68 6z"/>
<path d="M6270 3456 c0 -2 11 -6 25 -8 13 -3 22 -1 19 3 -5 9 -44 13 -44 5z"/>
<path d="M6385 3422 c14 -12 96 -34 103 -28 3 3 1 6 -4 6 -5 0 -31 7 -59 15
-27 9 -45 12 -40 7z"/>
<path d="M12249 3417 c4 -4 50 -6 102 -5 l94 3 -102 5 c-56 3 -99 1 -94 -3z"/>
<path d="M6546 3371 c5 -5 29 -13 53 -19 24 -6 40 -7 35 -3 -5 5 -29 13 -53
19 -24 6 -40 7 -35 3z"/>
<path d="M8865 3364 c-40 -14 -40 -14 -5 -9 19 3 39 10 44 15 12 12 12 12 -39
-6z"/>
<path d="M6771 3316 c4 -4 21 -11 39 -16 19 -5 29 -6 24 -1 -10 10 -72 26 -63
17z"/>
<path d="M8675 3313 c-43 -6 -52 -20 -10 -15 19 2 38 8 41 13 3 5 4 8 2 8 -2
-1 -16 -4 -33 -6z"/>
<path d="M6850 3296 c0 -2 11 -6 25 -8 13 -3 22 -1 19 3 -5 9 -44 13 -44 5z"/>
<path d="M8586 3291 c-4 -5 3 -7 14 -4 23 6 26 13 6 13 -8 0 -17 -4 -20 -9z"/>
<path d="M7096 3250 c3 -3 48 -10 99 -15 52 -6 92 -8 89 -5 -3 3 -48 10 -99
15 -52 6 -92 8 -89 5z"/>
<path d="M8338 3246 c-42 -6 -79 -13 -82 -17 -9 -9 148 13 159 22 5 5 7 8 5 8
-3 -1 -40 -7 -82 -13z"/>
<path d="M7795 3200 l-220 -6 217 -2 c136 -1 219 2 223 8 3 6 5 9 3 8 -2 -1
-102 -5 -223 -8z"/>
</g>
</svg>
